<mxfile host="app.diagrams.net" modified="2022-02-11T17:48:29.415Z" agent="5.0 (Macintosh)" etag="uGGhxw3hSM6j0OCzhf0b" version="16.1.2" type="github">
  <diagram id="1UQT5YMIuftZmYX2GV38" name="Page-1">
    <mxGraphModel dx="1195" dy="649" grid="1" gridSize="10" guides="1" tooltips="1" connect="1" arrows="1" fold="1" page="1" pageScale="1" pageWidth="3300" pageHeight="4681" math="0" shadow="0">
      <root>
        <mxCell id="0" />
        <mxCell id="1" parent="0" />
        <mxCell id="MBZWHoq0vqXCmWQEpYXV-1" value="&lt;div&gt;&lt;b&gt;&lt;font style=&quot;font-size: 13px&quot;&gt;SDK-Wrapper&lt;/font&gt;&lt;/b&gt;&lt;/div&gt;&lt;div&gt;&lt;b&gt;&lt;font style=&quot;font-size: 13px&quot;&gt;C++&lt;br&gt;&lt;/font&gt;&lt;/b&gt;&lt;/div&gt;" style="rounded=0;whiteSpace=wrap;html=1;fillColor=#FFD966;" vertex="1" parent="1">
          <mxGeometry x="90" y="520" width="120" height="190" as="geometry" />
        </mxCell>
        <mxCell id="MBZWHoq0vqXCmWQEpYXV-2" value="&lt;div&gt;Objective-C&lt;/div&gt;&lt;div&gt;class&lt;br&gt;&lt;/div&gt;" style="rounded=0;whiteSpace=wrap;html=1;fontStyle=1;fillColor=#FFD966;strokeColor=default;gradientColor=none;" vertex="1" parent="1">
          <mxGeometry x="300" y="520" width="90" height="190" as="geometry" />
        </mxCell>
        <mxCell id="MBZWHoq0vqXCmWQEpYXV-3" value="" style="rounded=0;whiteSpace=wrap;html=1;fillColor=#f0a30a;fontColor=#000000;strokeColor=default;" vertex="1" parent="1">
          <mxGeometry x="470" y="520" width="710" height="190" as="geometry" />
        </mxCell>
        <mxCell id="MBZWHoq0vqXCmWQEpYXV-4" value="&lt;div style=&quot;font-size: 11px&quot;&gt;RTP Packet&lt;/div&gt;&lt;div style=&quot;font-size: 11px&quot;&gt;HEVC/H.265&lt;br style=&quot;font-size: 11px&quot;&gt;&lt;/div&gt;" style="text;html=1;strokeColor=none;fillColor=none;align=center;verticalAlign=middle;whiteSpace=wrap;rounded=0;fontSize=11;fontStyle=1" vertex="1" parent="1">
          <mxGeometry x="150" y="582.8399999999999" width="210" height="20" as="geometry" />
        </mxCell>
        <mxCell id="MBZWHoq0vqXCmWQEpYXV-5" value="" style="endArrow=classic;html=1;rounded=0;fontSize=11;strokeWidth=3;entryX=0;entryY=0.5;entryDx=0;entryDy=0;exitX=1;exitY=0.5;exitDx=0;exitDy=0;" edge="1" parent="1" source="MBZWHoq0vqXCmWQEpYXV-1" target="MBZWHoq0vqXCmWQEpYXV-2">
          <mxGeometry width="50" height="50" relative="1" as="geometry">
            <mxPoint x="250" y="600" as="sourcePoint" />
            <mxPoint x="300" y="600" as="targetPoint" />
          </mxGeometry>
        </mxCell>
        <mxCell id="MBZWHoq0vqXCmWQEpYXV-6" value="" style="rounded=0;whiteSpace=wrap;html=1;fontSize=11;fillColor=#FFD966;" vertex="1" parent="1">
          <mxGeometry x="740" y="550" width="160" height="130" as="geometry" />
        </mxCell>
        <mxCell id="MBZWHoq0vqXCmWQEpYXV-7" value="" style="endArrow=classic;html=1;rounded=0;fontSize=11;strokeWidth=3;exitX=1.011;exitY=0.449;exitDx=0;exitDy=0;exitPerimeter=0;entryX=-0.001;entryY=0.451;entryDx=0;entryDy=0;entryPerimeter=0;" edge="1" parent="1" source="MBZWHoq0vqXCmWQEpYXV-2" target="MBZWHoq0vqXCmWQEpYXV-26">
          <mxGeometry width="50" height="50" relative="1" as="geometry">
            <mxPoint x="410" y="597.3249999999999" as="sourcePoint" />
            <mxPoint x="510" y="598" as="targetPoint" />
          </mxGeometry>
        </mxCell>
        <mxCell id="MBZWHoq0vqXCmWQEpYXV-10" value="&lt;b&gt;NSData&lt;/b&gt;" style="text;html=1;strokeColor=none;fillColor=none;align=left;verticalAlign=middle;whiteSpace=wrap;rounded=0;fontSize=11;fontStyle=0" vertex="1" parent="1">
          <mxGeometry x="410" y="575.33" width="40" height="30" as="geometry" />
        </mxCell>
        <mxCell id="MBZWHoq0vqXCmWQEpYXV-11" value="&lt;b&gt;Decode layer&lt;/b&gt;" style="text;html=1;strokeColor=none;fillColor=none;align=left;verticalAlign=middle;whiteSpace=wrap;rounded=0;fontSize=12;fontStyle=0" vertex="1" parent="1">
          <mxGeometry x="782.5" y="570.33" width="80" height="30" as="geometry" />
        </mxCell>
        <mxCell id="MBZWHoq0vqXCmWQEpYXV-12" value="&lt;b&gt;Video View controller&lt;/b&gt;" style="text;html=1;strokeColor=none;fillColor=none;align=left;verticalAlign=middle;whiteSpace=wrap;rounded=0;fontSize=11;fontStyle=0" vertex="1" parent="1">
          <mxGeometry x="722.5" y="520" width="140" height="30" as="geometry" />
        </mxCell>
        <mxCell id="MBZWHoq0vqXCmWQEpYXV-13" value="" style="rounded=0;whiteSpace=wrap;html=1;fontSize=11;fillColor=#FFD966;" vertex="1" parent="1">
          <mxGeometry x="960" y="550" width="200" height="130" as="geometry" />
        </mxCell>
        <mxCell id="MBZWHoq0vqXCmWQEpYXV-14" value="&lt;br&gt;&lt;font style=&quot;font-size: 13px&quot;&gt;&lt;b&gt;Video Player&lt;/b&gt;&lt;/font&gt;" style="text;html=1;strokeColor=none;fillColor=none;align=left;verticalAlign=middle;whiteSpace=wrap;rounded=0;fontSize=11;fontStyle=0" vertex="1" parent="1">
          <mxGeometry x="1010" y="552.84" width="100" height="30" as="geometry" />
        </mxCell>
        <mxCell id="MBZWHoq0vqXCmWQEpYXV-15" value="- Sử dụng AVSampleBufferDisplayLayer để play buffer vừa nhận được" style="text;html=1;strokeColor=none;fillColor=none;align=left;verticalAlign=middle;whiteSpace=wrap;rounded=0;fontSize=11;fontStyle=0" vertex="1" parent="1">
          <mxGeometry x="970" y="590" width="180" height="30" as="geometry" />
        </mxCell>
        <mxCell id="MBZWHoq0vqXCmWQEpYXV-16" value="&lt;div&gt;- Sử dụng VideoToolBox ( Core Media của iOS ) để decode&lt;/div&gt;" style="text;html=1;strokeColor=none;fillColor=none;align=left;verticalAlign=middle;whiteSpace=wrap;rounded=0;fontSize=11;fontStyle=0" vertex="1" parent="1">
          <mxGeometry x="755" y="600.33" width="150" height="49.67" as="geometry" />
        </mxCell>
        <mxCell id="MBZWHoq0vqXCmWQEpYXV-17" value="Màn hình hiển thị" style="rounded=0;whiteSpace=wrap;html=1;fillColor=#FFD966;" vertex="1" parent="1">
          <mxGeometry x="1000" y="750" width="130" height="70" as="geometry" />
        </mxCell>
        <mxCell id="MBZWHoq0vqXCmWQEpYXV-18" value="" style="endArrow=classic;html=1;rounded=0;fontSize=11;strokeWidth=3;exitX=0.5;exitY=1;exitDx=0;exitDy=0;entryX=0.454;entryY=-0.014;entryDx=0;entryDy=0;entryPerimeter=0;" edge="1" parent="1" target="MBZWHoq0vqXCmWQEpYXV-17" source="MBZWHoq0vqXCmWQEpYXV-13">
          <mxGeometry width="50" height="50" relative="1" as="geometry">
            <mxPoint x="880" y="760" as="sourcePoint" />
            <mxPoint x="1060" y="740" as="targetPoint" />
          </mxGeometry>
        </mxCell>
        <mxCell id="MBZWHoq0vqXCmWQEpYXV-19" value="" style="endArrow=classic;html=1;rounded=0;fontSize=11;strokeWidth=3;exitX=1;exitY=0.5;exitDx=0;exitDy=0;entryX=0;entryY=0.5;entryDx=0;entryDy=0;" edge="1" parent="1" source="MBZWHoq0vqXCmWQEpYXV-6" target="MBZWHoq0vqXCmWQEpYXV-13">
          <mxGeometry width="50" height="50" relative="1" as="geometry">
            <mxPoint x="730" y="605.33132" as="sourcePoint" />
            <mxPoint x="810" y="608" as="targetPoint" />
          </mxGeometry>
        </mxCell>
        <mxCell id="MBZWHoq0vqXCmWQEpYXV-20" value="Buffer" style="text;html=1;strokeColor=none;fillColor=none;align=left;verticalAlign=middle;whiteSpace=wrap;rounded=0;fontSize=11;fontStyle=0" vertex="1" parent="1">
          <mxGeometry x="910" y="620" width="100" height="30" as="geometry" />
        </mxCell>
        <mxCell id="MBZWHoq0vqXCmWQEpYXV-26" value="" style="rounded=0;whiteSpace=wrap;html=1;fontSize=11;fillColor=#FFD966;" vertex="1" parent="1">
          <mxGeometry x="510" y="550" width="180" height="125.33" as="geometry" />
        </mxCell>
        <mxCell id="MBZWHoq0vqXCmWQEpYXV-27" value="&lt;div&gt;- Tiền xử lý data đầu vào&lt;/div&gt;&lt;div&gt;- Đọc các trường sequence để sắp xếp thứ tự các gói tin&lt;/div&gt;&lt;div&gt;- Gói tin nào đến không đúng thứ tự sẽ được push vào một queue chung và xử lý gói tiếp theo&lt;br&gt;&lt;/div&gt;" style="text;html=1;strokeColor=none;fillColor=none;align=left;verticalAlign=middle;whiteSpace=wrap;rounded=0;fontSize=11;fontStyle=0" vertex="1" parent="1">
          <mxGeometry x="525" y="600.33" width="155" height="49.67" as="geometry" />
        </mxCell>
        <mxCell id="MBZWHoq0vqXCmWQEpYXV-29" value="&lt;b style=&quot;font-size: 12px;&quot;&gt;Xử lý logic&lt;/b&gt;" style="text;html=1;strokeColor=none;fillColor=none;align=left;verticalAlign=middle;whiteSpace=wrap;rounded=0;fontSize=12;fontStyle=0" vertex="1" parent="1">
          <mxGeometry x="560" y="552.8399999999999" width="70" height="30" as="geometry" />
        </mxCell>
        <mxCell id="MBZWHoq0vqXCmWQEpYXV-30" value="" style="endArrow=classic;html=1;rounded=0;fontSize=11;strokeWidth=3;exitX=1.011;exitY=0.449;exitDx=0;exitDy=0;exitPerimeter=0;" edge="1" parent="1">
          <mxGeometry width="50" height="50" relative="1" as="geometry">
            <mxPoint x="690" y="614.39" as="sourcePoint" />
            <mxPoint x="740" y="616" as="targetPoint" />
          </mxGeometry>
        </mxCell>
        <mxCell id="MBZWHoq0vqXCmWQEpYXV-31" value="&lt;b&gt;NSData&lt;/b&gt;" style="text;html=1;strokeColor=none;fillColor=none;align=left;verticalAlign=middle;whiteSpace=wrap;rounded=0;fontSize=11;fontStyle=0" vertex="1" parent="1">
          <mxGeometry x="690" y="620" width="40" height="30" as="geometry" />
        </mxCell>
      </root>
    </mxGraphModel>
  </diagram>
</mxfile>
